#!OML:ASF I:\golf\golf\golf 2\Subject 1\2002-09-07\Subject1.ASF
:FULLY-SPECIFIED
:DEGREES
217
root -6.80334 17.7045 1.1407 1.12748 65.6723 -15.8807
lowerback 6.71062 -8.64362 -10.1155
upperback 3.95018 -11.957 1.15375
thorax 2.7702 -6.25687 7.00721
lowerneck -10.5087 16.9108 4.25041
upperneck 19.1873 26.8148 -16.0917
head 10.8066 11.2837 -2.39347
rclavicle 7.95139e-016 -1.27222e-014
rhumerus 26.0592 -17.895 -77.1195
rradius 97.5212
rwrist -18.0757
rhand -61.6712 32.6478
rfingers 7.12502
rthumb -33.7413 5.80697
lclavicle 7.95139e-016 -1.27222e-014
lhumerus 97.7729 -47.9707 49.9509
lradius 29.4675
lwrist -7.0032
lhand -18.879 4.74812
lfingers 7.12502
lthumb -172.578 214.598
rfemur -38.1681 0.224963 23.7174
rtibia 35.7347
rfoot -10.2397 12.6679
rtoes 7.76007
lfemur -22.7574 22.3106 -4.00598
ltibia 30.6795
lfoot -10.6294 11.0924
ltoes -12.4565
218
root -6.8148 17.7173 1.07187 0.609511 66.8685 -16.5608
lowerback 6.70215 -8.61135 -9.95918
upperback 4.09174 -11.903 1.54959
thorax 2.97204 -6.25427 7.31904
lowerneck -10.6955 16.5178 4.22021
upperneck 19.4967 26.3526 -16.1372
head 10.9077 11.0389 -2.46935
rclavicle 8.42847e-014 -3.18055e-014
rhumerus 25.3799 -17.7381 -77.5136
rradius 96.9669
rwrist -18.9249
rhand -61.7942 30.9689
rfingers 7.12502
rthumb -33.8582 4.15378
lclavicle 8.42847e-014 -3.18055e-014
lhumerus 96.6487 -48.6538 50.875
lradius 28.8949
lwrist -7.18463
lhand -18.4561 5.13918
lfingers 7.12502
lthumb -172.17 214.974
rfemur -38.2383 -0.432412 23.6191
rtibia 35.4717
rfoot -10.2648 11.8706
rtoes 5.62766
lfemur -23.8022 22.2633 -4.47825
ltibia 30.8568
lfoot -10.5227 10.5945
ltoes -12.3108
219
root -6.82397 17.7296 1.00354 -0.0389082 68.1075 -17.3369
lowerback 6.62942 -8.61283 -9.76922
upperback 4.31245 -11.882 1.94152
thorax 3.29319 -6.27512 7.58959
lowerneck -10.9217 16.144 4.24122
upperneck 19.6456 25.9146 -16.3421
head 10.9941 10.8026 -2.59716
rclavicle 1.32788e-013 -4.77083e-015
rhumerus 24.842 -17.526 -78.0571
rradius 96.3064
rwrist -19.6905
rhand -61.7622 30.6804
rfingers 7.12502
rthumb -33.8278 3.85854
lclavicle 1.32788e-013 -4.77083e-015
lhumerus 95.2585 -49.2688 52.0297
lradius 28.2539
lwrist -7.92159
lhand -18.4143 5.35643
lfingers 7.12502
lthumb -172.13 215.19
rfemur -38.2411 -1.09628 23.502
rtibia 35.1844
rfoot -10.2325 11.0766
rtoes 3.80088
lfemur -24.7756 22.006 -4.89967
ltibia 31.0264
lfoot -10.5246 10.1204
ltoes -12.0731
220
root -6.83216 17.7437 0.932768 -0.608424 69.4045 -18.0036
lowerback 6.61721 -8.69248 -9.55414
upperback 4.52528 -11.9699 2.30872
thorax 3.58552 -6.34658 7.82869
lowerneck -11.11 15.8308 4.24823
upperneck 19.6293 25.5602 -16.6713
head 11.0404 10.6064 -2.75424
rclavicle -5.24792e-014 9.54166e-015
rhumerus 24.2815 -17.1199 -78.6829
rradius 95.6588
rwrist -20.4822
rhand -61.5866 32.1021
rfingers 7.12502
rthumb -33.6609 5.24368
lclavicle -5.24792e-014 9.54166e-015
lhumerus 93.6948 -49.6819 53.169
lradius 27.6062
lwrist -8.39617
lhand -18.4558 5.84546
lfingers 7.12502
lthumb -172.17 215.68
rfemur -38.1805 -1.6338 23.204
rtibia 34.8835
rfoot -10.2659 10.1095
rtoes 2.13755
lfemur -25.6954 21.6169 -5.3926
ltibia 31.1482
lfoot -10.3564 9.52865
ltoes -12.4105
221
root -6.8392 17.7615 0.862529 -1.36921 70.6581 -18.8991
lowerback 6.67368 -8.76926 -9.10453
upperback 4.60911 -12.0534 2.60012
thorax 3.63076 -6.38815 7.89439
lowerneck -11.3314 15.5439 4.28988
upperneck 19.9004 25.2349 -16.7345
head 11.1621 10.4258 -2.82075
rclavicle 1.66184e-013 -6.20208e-014
rhumerus 23.3144 -16.619 -79.2285
rradius 94.9002
rwrist -21.1053
rhand -61.5485 32.8725
rfingers 7.12502
rthumb -33.6247 6.00624
lclavicle 1.66184e-013 -6.20208e-014
lhumerus 91.916 -50.1896 54.4097
lradius 26.9496
lwrist -8.18829
lhand -17.8076 6.48131
lfingers 7.12502
lthumb -171.544 216.292
rfemur -38.0884 -1.96451 22.8908
rtibia 34.5871
rfoot -10.3308 8.97023
rtoes 0.584788
lfemur -26.5645 21.1588 -5.79081
ltibia 31.2111
lfoot -10.1832 8.88402
ltoes -12.3896
222
root -6.84614 17.7797 0.790901 -2.55582 71.9696 -20.2249
lowerback 6.63742 -8.74499 -8.56895
upperback 4.73182 -11.9886 2.90861
thorax 3.72235 -6.35497 7.92055
lowerneck -11.5542 15.1278 4.61006
upperneck 20.263 24.7281 -16.9051
head 11.3512 10.1664 -2.99458
rclavicle 3.02153e-014 -1.59028e-014
rhumerus 22.2238 -16.388 -79.6122
rradius 94.094
rwrist -21.7137
rhand -61.7093 31.0185
rfingers 7.12502
rthumb -33.7775 4.18564
lclavicle 3.02153e-014 -1.59028e-014
lhumerus 90.1979 -50.9257 55.685
lradius 26.4449
lwrist -7.79707
lhand -16.8432 6.93614
lfingers 7.12502
lthumb -170.613 216.707
rfemur -37.9782 -2.28588 22.6326
rtibia 34.3325
rfoot -10.186 7.85899
rtoes 0.618299
lfemur -27.3993 20.5307 -6.05316
ltibia 31.2203
lfoot -10.0851 8.2303
ltoes -11.7778
223
root -6.85235 17.7928 0.713834 -3.76734 73.4374 -21.5076
lowerback 6.55248 -8.68397 -8.18113
upperback 4.90535 -11.8777 3.25327
thorax 3.92794 -6.31041 8.05008
lowerneck -11.6478 14.5965 5.13093
upperneck 20.4361 24.062 -17.3928
head 11.4995 9.84619 -3.34884
rclavicle -6.91771e-014 -1.59028e-015
rhumerus 21.1793 -16.3234 -79.9094
rradius 93.4417
rwrist -22.7023
rhand -61.9874 28.819
rfingers 7.12502
rthumb -34.0418 2.0445
lclavicle -6.91771e-014 -1.59028e-015
lhumerus 88.6893 -51.7006 56.7082
lradius 25.9916
lwrist -7.72632
lhand -16.3163 7.31486
lfingers 7.12502
lthumb -170.105 217.062
rfemur -37.8822 -2.75834 22.2738
rtibia 34.138
rfoot -9.87303 6.70149
rtoes 1.30493
lfemur -28.1918 19.8311 -6.44497
ltibia 31.1818
lfoot -9.92972 7.42871
ltoes -11.4907
224
root -6.85584 17.798 0.634935 -4.77678 75.0093 -22.5423
lowerback 6.39801 -8.62525 -7.97335
upperback 5.09317 -11.7764 3.64888
thorax 4.24198 -6.28372 8.31496
lowerneck -11.7762 14.033 5.31303
upperneck 20.5408 23.3511 -17.7393
head 11.5494 9.50255 -3.62267
rclavicle -1.00187e-013 1.59028e-014
rhumerus 20.1926 -16.2218 -80.0915
rradius 92.7632
rwrist -23.7186
rhand -62.0945 25.6524
rfingers 7.12502
rthumb -34.1435 -1.09936
lclavicle -1.00187e-013 1.59028e-014
lhumerus 87.411 -52.3982 57.5278
lradius 25.4388
lwrist -7.78622
lhand -16.1685 7.98828
lfingers 7.12502
lthumb -169.962 217.729
rfemur -37.7793 -3.37106 21.7714
rtibia 33.9904
rfoot -9.64903 5.49561
rtoes 0.945299
lfemur -28.9148 19.0492 -7.00476
ltibia 31.11
lfoot -9.74319 6.58745
ltoes -12.4912
